<?xml version="1.0" encoding="UTF-8"?>
<svg version="1.1" xmlns="http://www.w3.org/2000/svg" width="50" height="19">
<path d="M0 0 C16.5 0 33 0 50 0 C50 6.27 50 12.54 50 19 C33.5 19 17 19 0 19 C0 12.73 0 6.46 0 0 Z " fill="#FCFCFC" transform="translate(0,0)"/>
<path d="M0 0 C11.91523747 -0.39281003 11.91523747 -0.39281003 17 3 C17.66 3 18.32 3 19 3 C19.99 3 20.98 3 22 3 C22 4.32 22 5.64 22 7 C21.01 7 20.02 7 19 7 C19.103125 7.886875 19.20625 8.77375 19.3125 9.6875 C18.90194499 14.03938306 17.28831975 15.25973354 14 18 C11.23547967 19.38226016 8.9538637 19.09525387 5.875 19.0625 C2.966875 19.0315625 2.966875 19.0315625 0 19 C0 12.73 0 6.46 0 0 Z " fill="#213367" transform="translate(0,0)"/>
<path d="M0 0 C12.54 0 25.08 0 38 0 C38 2.31 38 4.62 38 7 C28.76 7 19.52 7 10 7 C10 5.68 10 4.36 10 3 C9.01 3 8.02 3 7 3 C6.67 3.99 6.34 4.98 6 6 C5.566875 5.38125 5.13375 4.7625 4.6875 4.125 C3.00259517 1.7802755 3.00259517 1.7802755 0 0 Z " fill="#FAFAFA" transform="translate(12,0)"/>
<path d="M0 0 C0.61875 0.165 1.2375 0.33 1.875 0.5 C3.96063386 1.07634644 3.96063386 1.07634644 6 1 C6.99 1 7.98 1 9 1 C9 2.32 9 3.64 9 5 C8.01 5 7.02 5 6 5 C6.103125 5.886875 6.20625 6.77375 6.3125 7.6875 C6 11 6 11 3.9375 13.8125 C0.45461266 16.40613951 -1.68383337 16.92152424 -6 17 C-8.4375 16.0625 -8.4375 16.0625 -10 15 C-10 14.34 -10 13.68 -10 13 C-8.35 13 -6.7 13 -5 13 C-4.9175 12.154375 -4.835 11.30875 -4.75 10.4375 C-3.84266147 6.27886509 -2.23458727 3.60417301 0 0 Z " fill="#24366A" transform="translate(13,2)"/>
<path d="M0 0 C8.25 0 16.5 0 25 0 C25 1.32 25 2.64 25 4 C16.09 4 7.18 4 -2 4 C-2 3.34 -2 2.68 -2 2 C-1.34 2 -0.68 2 0 2 C0 1.34 0 0.68 0 0 Z " fill="#929292" transform="translate(25,3)"/>
<path d="M0 0 C0.99 0.33 1.98 0.66 3 1 C2.34 1 1.68 1 1 1 C-0.42528467 4.49304985 -0.42528467 4.49304985 -1.58984375 8.078125 C-2.24028926 10.21805224 -2.8539683 12.07646444 -4 14 C-7.1875 15 -7.1875 15 -10 15 C-11 12 -11 12 -10 9 C-9.01 9.33 -8.02 9.66 -7 10 C-6.938125 9.443125 -6.87625 8.88625 -6.8125 8.3125 C-5.66383862 5.043233 -3.51178856 3.32340442 -1 1 C-0.67 0.67 -0.34 0.34 0 0 Z " fill="#6F6444" transform="translate(12,1)"/>
<path d="M0 0 C3.3 0 6.6 0 10 0 C10 1.32 10 2.64 10 4 C6.04 4 2.08 4 -2 4 C-2 3.34 -2 2.68 -2 2 C-1.34 2 -0.68 2 0 2 C0 1.34 0 0.68 0 0 Z " fill="#B9B19B" transform="translate(25,3)"/>
<path d="M0 0 C0.99 0.33 1.98 0.66 3 1 C2.34 1 1.68 1 1 1 C0.5978125 2.1446875 0.5978125 2.1446875 0.1875 3.3125 C-0.95134505 5.88988618 -1.81416671 7.26954864 -4 9 C-4.66 9 -5.32 9 -6 9 C-5.52797514 4.75177626 -3.03344482 2.80010291 0 0 Z " fill="#4F4F51" transform="translate(12,1)"/>
<path d="M0 0 C2.33333333 2.33333333 4.66666667 4.66666667 7 7 C4.69 7 2.38 7 0 7 C0 4.69 0 2.38 0 0 Z " fill="#F1F2F4" transform="translate(0,12)"/>
<path d="M0 0 C2.31 0 4.62 0 7 0 C7 1.32 7 2.64 7 4 C5.35 4 3.7 4 2 4 C2.33 3.01 2.66 2.02 3 1 C2.01 0.67 1.02 0.34 0 0 Z " fill="#A3A3A3" transform="translate(43,3)"/>
<path d="M0 0 C1.98 0 3.96 0 6 0 C4.07423885 2.43929746 2.19909405 4.80090595 0 7 C0 4.69 0 2.38 0 0 Z " fill="#F2F3F5" transform="translate(0,0)"/>
<path d="M0 0 C0 0.33 0 0.66 0 1 C-0.886875 1.2475 -1.77375 1.495 -2.6875 1.75 C-6.10427135 3.03934768 -8.2797748 4.59980129 -11 7 C-8.87296567 0.78251503 -6.45381515 -0.28683623 0 0 Z " fill="#3D4D7A" transform="translate(12,0)"/>
</svg>
